Coordinates
version=1
nRows=23
nColumns=28
inDegrees=yes

Units are S.I. units (second, meters, Newtons, ...)
If the header above contains a line with 'inDegrees', this indicates whether rotational values are in degrees (yes) or radians (no).

endheader
time	pelvis_tilt	pelvis_list	pelvis_rotation	pelvis_tx	pelvis_ty	pelvis_tz	hip_flexion_r	hip_adduction_r	hip_rotation_r	knee_angle_r	knee_angle_r_ie	knee_angle_r_vv	ankle_angle_r	subtalar_angle_r	mtp_angle_r	hip_flexion_l	hip_adduction_l	hip_rotation_l	knee_angle_l	knee_angle_l_ie	knee_angle_l_vv	ankle_angle_l	subtalar_angle_l	mtp_angle_l	lumbar_extension	lumbar_bending	lumbar_rotation
      9.97000000	      3.00980528	      0.84404090	      3.61275056	     -0.21780895	      0.92888380	     -0.72867013	     10.51052766	      1.26579385	     -4.94200480	    -33.58490405	     -5.62747113	     -3.08094782	      9.48275491	     -4.34346113	      0.00000000	     -4.11031010	     -2.04550421	     -7.02904552	     -0.18410023	     10.35884051	     -4.31966971	      5.69361296	      1.11099518	      0.00000000	    -20.77673406	     -0.85137801	    -17.14725999
      9.97500000	      2.89043702	      0.87925686	      3.50068981	     -0.22112493	      0.92852028	     -0.72807555	     10.17990814	      1.25949704	     -4.79956219	    -34.15556996	     -5.40308401	     -3.09742933	      9.79989761	     -4.34582698	      0.00000000	     -3.86907987	     -2.01617546	     -6.99837316	      0.00714472	     10.46966097	     -4.35493919	      5.43352247	      1.00362358	      0.00000000	    -20.63414946	     -0.93006494	    -17.07789804
      9.98000000	      2.74790204	      0.94276919	      3.39483649	     -0.22446749	      0.92811150	     -0.72750373	      9.86071068	      1.20256424	     -4.66640252	    -34.68810284	     -5.13344342	     -3.09926282	     10.06092113	     -4.32674388	      0.00000000	     -3.58635606	     -1.96108136	     -6.89575084	      0.17510101	     10.56629553	     -4.40165968	      5.14586157	      0.77500101	      0.00000000	    -20.46848511	     -1.04387684	    -16.98628277
      9.98500000	      2.60674192	      0.97687137	      3.28927843	     -0.22782634	      0.92766148	     -0.72688568	      9.52611713	      1.18672357	     -4.57642523	    -35.16411738	     -4.85659298	     -3.14044935	     10.34863908	     -4.33283207	      0.00000000	     -3.28602986	     -1.94711381	     -6.79132077	      0.33250124	     10.54092906	     -4.45834496	      4.80141762	      0.26347517	      0.00000000	    -20.30154496	     -1.10922030	    -16.91095956
      9.99000000	      2.53494744	      1.03877755	      3.19248400	     -0.23117704	      0.92726118	     -0.72622014	      9.09128867	      1.13858891	     -4.45788504	    -35.58525915	     -4.64161523	     -3.14740248	     10.68561430	     -4.28658845	      0.00000000	     -3.04656763	     -1.91080758	     -6.79480087	      0.44247230	     10.57812956	     -4.50065811	      4.59376213	      0.17578981	      0.00000000	    -20.22298647	     -1.22013963	    -16.80099066
      9.99500000	      2.44607665	      1.09686733	      3.10550686	     -0.23449705	      0.92683008	     -0.72556539	      8.65241525	      1.08955088	     -4.42937273	    -35.93893866	     -4.41478410	     -3.21358350	     10.99858845	     -4.11276644	      0.00000000	     -2.77823682	     -1.89145651	     -6.66045152	      0.55486576	     10.53379575	     -4.57930374	      4.24561891	     -0.38491262	      0.00000000	    -20.11175398	     -1.31069472	    -16.70132305
     10.00000000	      2.39840287	      1.18085203	      3.00384122	     -0.23781149	      0.92641662	     -0.72486430	      8.15411887	      1.00634426	     -4.30267511	    -36.25956213	     -4.22116796	     -3.21146652	     11.31823280	     -4.03746706	      0.00000000	     -2.54136387	     -1.83503581	     -6.68700132	      0.61865813	     10.56702024	     -4.61909271	      4.07548315	     -0.47000392	      0.00000000	    -20.05700440	     -1.43677237	    -16.56268080
     10.00500000	      2.36804483	      1.27632825	      2.91098643	     -0.24112572	      0.92602680	     -0.72415901	      7.61544560	      0.90673003	     -4.19723701	    -36.51730531	     -4.01703661	     -3.22726609	     11.61532842	     -3.93198862	      0.00000000	     -2.30777132	     -1.77232258	     -6.67002187	      0.65640244	     10.63119962	     -4.66193720	      3.89032509	     -0.57711588	      0.00000000	    -20.02000420	     -1.56051294	    -16.43568651
     10.01000000	      2.34598696	      1.37299540	      2.81967343	     -0.24443039	      0.92562461	     -0.72341932	      7.05544443	      0.80387335	     -4.10303743	    -36.73151322	     -3.82332260	     -3.25283863	     11.89621369	     -3.80624964	      0.00000000	     -2.07007926	     -1.71538447	     -6.64989053	      0.66699277	     10.69520657	     -4.71096053	      3.71441313	     -0.70384215	      0.00000000	    -19.99335504	     -1.68986812	    -16.29139156
     10.01500000	      2.32141885	      1.46129837	      2.72325424	     -0.24773211	      0.92520022	     -0.72264272	      6.48700630	      0.70758886	     -4.00325508	    -36.89923575	     -3.64527332	     -3.28321741	     12.15053893	     -3.67138062	      0.00000000	     -1.81487948	     -1.67274045	     -6.64849470	      0.64834550	     10.74230880	     -4.76198341	      3.55571157	     -0.83467209	      0.00000000	    -19.96218396	     -1.81090584	    -16.12904759
     10.02000000	      2.39391100	      1.55974033	      2.65116313	     -0.25101099	      0.92490315	     -0.72184939	      5.78585546	      0.60490880	     -3.98026020	    -36.98206621	     -3.61293700	     -3.36058297	     12.40571694	     -3.25194777	      0.00000000	     -1.66135981	     -1.63104524	     -6.62720025	      0.65028252	     10.57241654	     -4.82126970	      3.25364565	     -1.35542897	      0.00000000	    -20.03851318	     -1.92956302	    -15.99049788
     10.02500000	      2.34673037	      1.67286489	      2.54548014	     -0.25437130	      0.92443552	     -0.72101788	      5.23712499	      0.46990688	     -3.81773968	    -37.09875542	     -3.44709459	     -3.36191202	     12.64683830	     -3.17549917	      0.00000000	     -1.34039246	     -1.55769862	     -6.68754482	      0.55194062	     10.58474971	     -4.84639044	      3.16910471	     -1.41979101	      0.00000000	    -19.99263505	     -2.07376364	    -15.81169251
     10.03000000	      2.34448134	      1.78981433	      2.43435518	     -0.25769568	      0.92402272	     -0.72016147	      4.61929290	      0.33370388	     -3.67669282	    -37.14415137	     -3.30584756	     -3.38724279	     12.82931706	     -3.09490772	      0.00000000	     -1.07300693	     -1.47923149	     -6.80275437	      0.47023908	     10.56372228	     -4.86380092	      3.01401633	     -1.52328596	      0.00000000	    -19.98310960	     -2.22324229	    -15.62555797
     10.03500000	      2.40015959	      1.89201134	      2.33270121	     -0.26103566	      0.92367105	     -0.71927992	      3.92936680	      0.21381875	     -3.52218909	    -37.14471711	     -3.15913882	     -3.40585087	     12.95460264	     -3.02644908	      0.00000000	     -0.85177273	     -1.41734095	     -6.97043793	      0.38065753	     10.30711476	     -4.85848310	      2.80843268	     -1.80783629	      0.00000000	    -20.04912680	     -2.34396942	    -15.44646169
     10.04000000	      2.36704473	      2.00309521	      2.21080191	     -0.26443113	      0.92319084	     -0.71833055	      3.35192894	      0.08335956	     -3.36175764	    -37.14543029	     -2.98881792	     -3.44565993	     13.11312237	     -2.98760207	      0.00000000	     -0.51249171	     -1.35509798	     -7.05644371	      0.22874262	     10.31632595	     -4.87182983	      2.71013374	     -1.89068483	      0.00000000	    -20.01636610	     -2.49036827	    -15.22598981
     10.04500000	      2.42440451	      2.10793691	      2.09317380	     -0.26778896	      0.92281816	     -0.71738315	      2.65005994	     -0.04347728	     -3.15812945	    -37.06770941	     -2.78118458	     -3.45123234	     13.16628685	     -3.12238003	      0.00000000	     -0.27470320	     -1.28735151	     -7.32574519	      0.11335657	      9.95270029	     -4.84430853	      2.50750354	     -2.19409851	      0.00000000	    -20.07588979	     -2.61348483	    -15.04062366
     10.05000000	      2.39863187	      2.22251853	      1.96171266	     -0.27121533	      0.92233001	     -0.71640200	      2.05643810	     -0.18420862	     -2.98905220	    -36.98623149	     -2.60600655	     -3.50493255	     13.29501441	     -3.11470236	      0.00000000	      0.07454978	     -1.21888881	     -7.43888049	     -0.06109895	      9.97015132	     -4.84066956	      2.38567778	     -2.28926103	      0.00000000	    -20.04876481	     -2.75999076	    -14.80993157
     10.05500000	      2.40523198	      2.32051399	      1.82617316	     -0.27465441	      0.92186626	     -0.71534825	      1.41839726	     -0.30427357	     -2.78307981	    -36.84895030	     -2.43803715	     -3.54589354	     13.39479911	     -3.14415183	      0.00000000	      0.39487220	     -1.17408472	     -7.61979329	     -0.23742077	      9.89506832	     -4.82536112	      2.24375947	     -2.36989949	      0.00000000	    -20.05716196	     -2.88799483	    -14.57391079
     10.06000000	      2.44094271	      2.43902959	      1.69985408	     -0.27810363	      0.92144229	     -0.71434295	      0.73717609	     -0.46198893	     -2.57413687	    -36.65564601	     -2.27813308	     -3.56998724	     13.46938888	     -3.20317846	      0.00000000	      0.69182960	     -1.09715753	     -7.80626555	     -0.41983889	      9.77648094	     -4.78655305	      2.11637880	     -2.46571048	      0.00000000	    -20.09795564	     -3.02540692	    -14.37233108
     10.06500000	      2.51785746	      2.52075138	      1.56494257	     -0.28154848	      0.92103868	     -0.71325192	     -0.00094418	     -0.58105588	     -2.29625961	    -36.39901449	     -2.04766367	     -3.54702238	     13.41416853	     -3.54247550	      0.00000000	      0.95295770	     -1.06466619	     -8.13267180	     -0.60072738	      9.33566584	     -4.74000298	      1.93926807	     -2.86112713	      0.00000000	    -20.18102212	     -3.10460608	    -14.23499266
     10.07000000	      2.48030955	      2.59230668	      1.44077573	     -0.28508676	      0.92048933	     -0.71211981	     -0.59618624	     -0.68599209	     -2.13688562	    -36.13126427	     -1.87718202	     -3.62456091	     13.53472026	     -3.55659491	      0.00000000	      1.36204975	     -1.07214827	     -8.17239961	     -0.84073761	      9.35323666	     -4.74061854	      1.81240260	     -2.96569283	      0.00000000	    -20.13555616	     -3.20511241	    -13.96567719
     10.07500000	      2.49472793	      2.68119578	      1.31213114	     -0.28862431	      0.91999459	     -0.71100038	     -1.25852344	     -0.82468535	     -1.95294593	    -35.80412966	     -1.72194054	     -3.67809273	     13.60839628	     -3.57770971	      0.00000000	      1.71763849	     -1.05239849	     -8.26056490	     -1.07952698	      9.34605863	     -4.72089702	      1.68886673	     -3.08111307	      0.00000000	    -20.15270523	     -3.30725246	    -13.74561102
     10.08000000	      2.50845153	      2.74295190	      1.19432159	     -0.29220294	      0.91947506	     -0.70983235	     -1.92126241	     -0.93247105	     -1.76960253	    -35.42931973	     -1.59535901	     -3.73106281	     13.67808390	     -3.60902506	      0.00000000	      2.09354847	     -1.07501625	     -8.32123791	     -1.34906893	      9.32669745	     -4.71032841	      1.57938066	     -3.20066749	      0.00000000	    -20.16974167	     -3.37514990	    -13.53738620
